<svg version="1.2" xmlns="http://www.w3.org/2000/svg" viewBox="0 0 567 142" width="567" height="142">
	<title>Awtarlogo-05-svg</title>
	<defs>
		<linearGradient id="g1" x1="317.2" y1="64.5" x2="424.6" y2="64.5" gradientUnits="userSpaceOnUse">
			<stop offset="0" stop-color="#36c2db"/>
			<stop offset=".2" stop-color="#6d92c0"/>
			<stop offset=".3" stop-color="#a263a6"/>
			<stop offset=".5" stop-color="#c94193"/>
			<stop offset=".6" stop-color="#e12c87"/>
			<stop offset=".7" stop-color="#ea2483"/>
		</linearGradient>
	</defs>
	<style>
		.s0 { fill: url(#g1) } 
		.s1 { fill: #ffffff } 
	</style>
	<path id="Layer" fill-rule="evenodd" class="s0" d="m424.6 113c-36.3-16-71.6-16.4-107.4-2.6q2-1.2 4-2.4q2-1.2 4.1-2.3q2.1-1.1 4.2-2.2q2.1-1 4.2-2c18.1-8 37.2-11.4 57.8-10.8l-22.8-39.8c-6.4 11.1-12.5 21.6-18.7 32.5c3.7 0.4 6.7 0.8 9.8 1.1c2.8 0.4 5.7 0.8 8.5 1.2c-16.7 3.3-33 7-48.2 14.7l48.6-84.4c18.8 32.6 37 64.2 55.9 97zm-64.5-35.6l3.4-1v-4q-0.1-0.7 0-1.4q0.1-0.6 0.4-1.2q0.2-0.6 0.5-1.2q0.4-0.6 0.9-1q1.7-1.7 5.6-1.7q0.3 0 0.7 0q0.1 0 0.3 0q0.1 0 0.2 0q0.1 0 0.2 0.1q0.2 0 0.3 0l1.1 0.2q0.5 0.1 1.1 0.2l-0.1 4.9q-0.2-0.1-0.5-0.2q-0.2 0-0.5-0.1q-0.2 0-0.5-0.1q-0.3 0-0.5-0.1q-0.3 0-0.5 0q-0.2 0-0.4 0q-0.2-0.1-0.4-0.1q-0.2 0-0.5 0q-0.2 0-0.4 0q-0.2 0.1-0.4 0.1q-0.2 0.1-0.4 0.1q-0.2 0.1-0.4 0.2q-0.2 0.1-0.3 0.2q-0.1 0.2-0.2 0.3q-0.1 0.2-0.2 0.4q0 0.2 0 0.3v4h7.3v4.6h-15.8z" />
	<path id="Layer" class="s1" d="m144.9 62.1l6.8-3.4v29.2c0 6.4-3.2 10.6-7.4 12.7q-0.3-0.8-0.6-1.6q-0.4-0.8-0.8-1.6q-0.4-0.8-0.8-1.5q-0.5-0.8-1-1.5q0.9-0.4 1.6-1.1q0.7-0.7 1.2-1.6q0.5-0.9 0.8-1.8q0.2-1 0.2-2z" />
	<path id="Layer" class="s1" d="m228.3 43.8l4.5-4.5l5.4 5.4l-5.4 5.3l-4.5-4.4l-4.5 4.4l-5.3-5.3l5.3-5.4l4.5 4.5z" />
	<path id="Layer" class="s1" d="m227.8 59.6q0.3-0.6 0.8-1.1q0.5-0.5 1.1-0.8q0.6-0.2 1.3-0.2h3.3v28.4h-71v-45.3q0.9 1.4 1.9 2.8q1 1.3 2.1 2.6q1.1 1.3 2.3 2.4q1.2 1.2 2.5 2.3h-2v28q0.1 0.2 0 0.4h57.4v-18.2q0.1-0.7 0.3-1.3z" />
	<path id="Layer" fill-rule="evenodd" class="s1" d="m272.8 71.7v10.8c0 12.3-8.4 18.8-17.7 19.6q-0.1-0.9-0.3-1.8q-0.1-0.9-0.4-1.8q-0.3-0.8-0.7-1.6q-0.4-0.8-0.9-1.6h0.4c5.7 0 11.7-3.5 12.7-10.6q0.1-0.3 0.1-0.6q0-0.2 0-0.5q0-0.3 0-0.6q0-0.2-0.1-0.5q-0.2 0.7-0.7 1.3q-0.5 0.7-1.2 1.1q-0.6 0.5-1.4 0.7q-0.7 0.3-1.5 0.3h-2.5c-9.3 0-14.1-6.7-14.2-13.8c-0.2-7.4 4.5-14.6 14.2-14.6c9.5 0 14.2 6.9 14.2 14.2zm-6.8 0c0-2-0.8-4-2.3-5.4c-1.4-1.4-3.4-2.1-5.4-2c-2 0-3.9 1-5.3 2.5c-1.3 1.5-2 3.5-1.8 5.5q0.1 1.4 0.7 2.7q0.6 1.3 1.6 2.2q1.1 1 2.4 1.5q1.3 0.5 2.7 0.4h7.4z" />
	<path id="Layer" class="s1" d="m292.5 38.5h-8.1q-0.2 0-0.4 0q-0.2 0.1-0.4 0.1q-0.2 0.1-0.4 0.2q-0.1 0.1-0.3 0.2l-2.2-2.2q0.3-0.2 0.7-0.4q0.3-0.2 0.6-0.4q0.4-0.2 0.7-0.3q0.4-0.2 0.8-0.2c-1.7-3.5 0-8.6 5.1-8.6h1.6q0 0.4 0.1 0.8q0 0.4 0.2 0.8q0.1 0.4 0.3 0.7q0.2 0.4 0.5 0.7h-2.7c-3.6 0-3.6 5.5 0 5.5h5.5z" />
	<path id="Layer" class="s1" d="m286.8 43.4q1 1.3 2.1 2.6q1.1 1.3 2.3 2.4q1.2 1.2 2.5 2.3h-2v35.2h-6.8v-45.3q0.9 1.4 1.9 2.8z" />
</svg>